<?xml version="1.0" encoding="utf-8"?><!-- Uploaded to: SVG Repo, www.svgrepo.com, Generator: SVG Repo Mixer Tools -->
<svg width="800px" height="800px" viewBox="0 0 64 64" scale="0.025 0.025" fill="none" xmlns="http://www.w3.org/2000/svg">
<path d="M58.38 21.701C58.3845 22.4886 58.1675 23.2616 57.7538 23.9318C57.34 24.6019 56.7461 25.1423 56.0399 25.491L34.27 36.371C33.6842 36.6676 33.0366 36.8218 32.38 36.821C31.7233 36.8218 31.0758 36.6676 30.49 36.371L8.71994 25.491C8.01597 25.1422 7.42371 24.6032 7.01016 23.9352C6.59662 23.2671 6.37835 22.4967 6.37998 21.711C6.37694 20.9238 6.59455 20.1514 7.00815 19.4815C7.42174 18.8116 8.01474 18.271 8.71994 17.921L30.49 7.04104C31.0765 6.74751 31.7241 6.59674 32.38 6.60104C33.0358 6.59674 33.6835 6.74751 34.27 7.04104L56.0399 17.921C56.7439 18.2699 57.3362 18.8089 57.7497 19.4769C58.1633 20.1449 58.3816 20.9154 58.38 21.701Z" fill="#999999"/>
<path d="M56.04 27.9509C56.7452 28.3009 57.3382 28.8415 57.7518 29.5114C58.1654 30.1813 58.383 30.9537 58.38 31.741C58.3816 32.5266 58.1633 33.2971 57.7498 33.9651C57.3362 34.6331 56.744 35.1721 56.04 35.521L34.27 46.4109C33.6818 46.6997 33.0353 46.8502 32.38 46.851C31.7247 46.8502 31.0782 46.6997 30.49 46.4109L8.71998 35.521C8.01722 35.1715 7.42642 34.6322 7.0146 33.964C6.60277 33.2959 6.38643 32.5258 6.39002 31.741C6.38547 30.9534 6.60242 30.1804 7.01618 29.5102C7.42995 28.84 8.02383 28.2997 8.72999 27.9509L8.95002 27.8409L13.42 30.0809L29.6 38.1609C30.4632 38.5928 31.4148 38.8187 32.38 38.821C33.3484 38.8187 34.3032 38.5928 35.17 38.1609L51.34 30.0809L55.82 27.8409L56.04 27.9509Z" fill="#000000"/>
<path d="M56.04 37.991C56.7439 38.3399 57.3362 38.8788 57.7497 39.5468C58.1633 40.2149 58.3816 40.9853 58.38 41.771C58.3816 42.5567 58.1633 43.3271 57.7497 43.9951C57.3362 44.6631 56.7439 45.2021 56.04 45.551L34.27 56.441C33.6842 56.7376 33.0366 56.8918 32.38 56.891C31.7234 56.8918 31.0758 56.7376 30.49 56.441L8.71996 45.551C8.0172 45.2015 7.4264 44.6622 7.01458 43.9941C6.60275 43.3259 6.38641 42.5558 6.39 41.771C6.3843 40.9857 6.59977 40.2147 7.01183 39.5462C7.42389 38.8777 8.01586 38.3387 8.71996 37.991L8.95 37.871L13.43 40.111L29.61 48.201C30.4708 48.6285 31.4189 48.851 32.38 48.851C33.3442 48.8499 34.2952 48.6275 35.16 48.201L51.35 40.111L55.81 37.871L56.04 37.991Z" fill="#999999"/>
</svg>